<svg width="803" height="264" xmlns="http://www.w3.org/2000/svg">
 <g id="Layer_1">
  <title>Layer 1</title>
  <text fill="#ffffff" stroke-width="0" x="277.48779" y="370.98286" id="svg_2" font-size="26" font-family="'Playball'" text-anchor="start" xml:space="preserve" font-weight="normal" font-style="normal" stroke="#000" transform="matrix(4.10013 0 0 9.89854 -952.314 -3472.9)">VeggieMallorca</text>
  <path fill="#ffffff" stroke-width="0" d="m20.83004,66.38525c-0.78429,0 -1.18779,-0.71948 -1.18779,-1.58406c0,-0.72069 0.2019,-1.41887 0.78465,-1.41887c0.40314,0 1.0103,0.69818 1.21152,1.41887c0.40333,1.04852 0,1.58406 -0.80839,1.58406l0.00001,0zm134.07426,41.11731c1.79433,0 2.19759,0.18405 1.18764,1.41888c-0.58286,0.86472 -1.79474,1.58551 -2.37717,1.58551c-0.6071,0 -1.21165,-0.72079 -1.21165,-1.58551c0,-0.88455 0.8084,-1.41888 2.4012,-1.41888l-0.00002,0zm-125.27971,-50.29504c-1.79424,-0.34909 -1.99617,-2.11957 0,-2.65384c1.00978,-0.16516 1.59289,0.34909 1.59289,1.42014c0,0.88461 -0.58311,1.39886 -1.59289,1.2337zm-22.36697,55.93323c2.40073,-0.51572 2.40073,-0.88467 1.59235,-2.09952c-0.60456,-0.8847 -0.80611,-1.95456 -0.40281,-2.30365c0.20123,-0.53552 1.21118,0 1.79428,1.04858c0.80839,1.41891 1.41293,1.60519 3.00578,0.72079c0.98849,-0.53448 1.79428,-0.88596 1.79428,-0.35043c0,0.35043 0.60713,0 1.39106,-0.71936c1.21179,-1.04977 1.41365,-3.35449 0.20197,-4.58969c-0.9859,-1.04834 -5.98978,-0.69931 -7.38159,0.53439c-0.80579,0.88449 -1.41293,0.70081 -2.19709,-0.88461c-1.21188,-2.63382 -1.21188,-3.00412 1.59254,-3.16934c2.40144,0 2.40144,0 0.40331,-1.06967c-1.00785,-0.51419 -1.99585,-1.58395 -1.99585,-2.28339c0,-1.77048 2.78209,-2.82025 3.99397,-1.58408c0.40331,0.51303 1.18727,1.04855 1.99564,1.04855c1.59304,0 9.19752,-5.98834 9.19752,-7.2233c0,-0.53549 0.78638,-0.88461 1.59304,-0.53549c0.98833,0.1864 2.78259,-0.34912 4.60076,-1.23502c2.57874,-1.42014 2.57874,-1.58405 1.1878,-3.88876c-0.98586,-1.58411 -2.19759,-2.11957 -5.0022,-2.11957c-3.18517,0 -3.99355,0.34906 -4.98012,2.46991c-0.40524,1.42014 -1.61675,2.46866 -2.4006,2.46866c-1.39177,0 -1.79477,-1.58408 -0.40349,-2.46866c0.60475,-0.35034 1.00804,-1.58533 1.00804,-2.82025c0,-1.93317 -0.40329,-2.28348 -3.00595,-1.76926c-2.60316,0.35034 -2.60316,0.18518 -1.99635,-2.46992c0.40331,-1.58408 0.98622,-3.00418 1.3918,-3.16934c0.40279,-0.18396 0.80579,-1.76923 0.80579,-3.35327c0,-3.16937 1.18954,-3.7049 3.38971,-1.42017c1.00721,1.23499 1.61455,1.42017 1.9957,0.34912c0.40314,-0.69818 1.81607,-0.86334 4.01628,-0.51428c2.9838,0.69946 3.18522,0.51428 2.7826,-1.58405c-0.20193,-1.23622 -0.40582,-2.65506 -0.60718,-3.00418c0,-0.53552 -0.98588,-1.23494 -2.17542,-1.7692c-2.40143,-0.88586 -3.00598,-3.00543 -0.80837,-3.00543c0.60642,0 1.18953,-0.34912 1.18953,-1.04977c0,-0.53426 1.21098,-0.88466 2.80406,-0.72072c2.19986,0.18646 3.38712,-0.51422 6.39312,-4.21788c2.2,-2.65514 3.79292,-4.07527 3.99411,-3.35457c0.20139,0.8846 1.21188,1.39886 2.20024,1.39886c1.59216,0 1.79409,-0.51427 1.21096,-2.81902c-0.20383,-1.58403 -1.21096,-3.51842 -1.81816,-4.40425c-1.79424,-1.95444 -1.79424,-4.23788 0,-3.5397c1.41293,0.70068 5.81075,-1.2337 5.81075,-2.46866c0,-0.53552 0.58414,-0.88461 1.39072,-0.88461c0.80838,0 1.18954,1.06979 1.18954,2.46866c0,1.77048 0.4034,2.46988 1.41338,1.95441c0.78423,-0.36911 1.39143,-1.41887 1.39143,-2.11832c0,-2.11957 6.39314,-5.82443 7.98619,-4.77341c0.60654,0.34909 1.21107,0 1.4149,-1.23621c0.58301,-2.46991 4.19356,-4.40305 5.78661,-3.16809c0.80838,0.51425 1.59303,0.34909 1.79607,-0.18518c0.40303,-0.70068 1.99608,-1.23495 3.79063,-1.40012c1.79407,-0.18518 4.19548,-0.88461 5.20575,-1.60533c3.78983,-2.28473 7.58275,-2.11957 9.17567,0.35034c1.00955,1.77048 1.41293,1.77048 1.41293,0.53552c0,-1.5853 0.78664,-1.77048 5.58675,-1.23495c7.60496,0.69945 8.79452,0.69945 11.59888,-0.18518c1.79411,-0.51549 2.40068,-0.35034 2.40068,1.06979c0,0.88461 0.58344,1.5853 1.39191,1.5853c0.60446,0 1.1869,-0.51549 1.1869,-1.05103c0,-1.41888 3.20975,-2.11957 6.01468,-1.41888c2.17542,0.69943 2.37715,0.88461 1.79416,5.638c-0.20122,2.84027 0,4.77467 0.38126,4.77467c0.40321,0 0.80827,-1.23495 0.80827,-3.00418c0,-2.98416 2.19759,-4.21912 3.00607,-1.77048c0.20177,0.88461 0.7845,0.53552 1.18793,-0.86334c1.00958,-3.70486 3.20953,-1.77048 2.60249,2.28348c-0.60446,3.35452 -0.60446,3.35452 1.18967,2.11957c1.01025,-0.53427 1.79411,-1.93439 1.79411,-2.819c0,-0.88585 0.60715,-1.93439 1.41376,-2.30475c1.59227,-0.69943 3.38907,1.95442 2.80402,3.89006c-0.20117,0.88336 -0.20117,1.58403 0.38136,1.58403c0.40559,0 0.80832,-0.51425 0.80832,-0.88461c0,-0.51549 0.98824,-0.69942 2.19972,-0.35033c2.60103,0.53427 2.98227,1.95441 0.78468,2.81775c-0.58299,0.3716 -1.18954,1.23621 -1.18954,1.95691c0,1.2337 0.40486,1.2337 2.60245,0c3.58861,-2.11957 5.18166,-1.95691 5.78862,0.34909c0.40268,1.23494 1.18958,1.77048 1.99591,1.23494c0.80824,-0.18518 2.60234,0.53552 3.99406,1.76921c1.21155,1.04976 3.00603,1.93439 3.81439,1.93439c1.18953,0 1.18953,0.88586 0.78423,3.35452c-0.40305,2.65509 -0.40305,3.00543 0.80882,1.93439c1.59262,-1.74794 2.19705,-1.58403 2.78215,0.88463c0.20148,1.23494 1.6147,2.12086 3.20746,2.65514c1.79437,0.35033 2.7825,1.2337 2.7825,2.28473c0,1.06975 0.60489,2.30353 1.21188,3.00421c1.59254,1.23491 1.1871,4.93857 -0.60699,6.17348c-0.60489,0.36913 -1.39142,0.18518 -1.59302,-0.34909c-0.40286,-0.53551 -1.79437,-0.53551 -4.39685,0c-4.19595,1.23372 -4.98018,1.58406 -3.99426,3.18939c0.60713,1.04852 7.58525,0.6994 11.39706,-0.53552c1.18954,-0.53429 1.59305,0 1.59305,2.46992c0,1.76923 -0.4035,3.16931 -1.00804,3.16931c-0.40523,0 -0.78636,0.5343 -0.78636,1.41888c0,2.12088 0.98796,1.93442 3.591,-0.53424c1.38921,-1.42017 2.19759,-1.77051 3.18552,-0.88464c1.00749,0.88464 1.2113,0.88464 1.2113,-0.53552c0,-0.86456 -0.40515,-1.58401 -1.00972,-1.58401c-0.38115,0 -0.78648,-0.70067 -0.78648,-1.40012c0,-0.88464 0.5849,-1.58405 1.39105,-1.58405c0.60678,0 1.41319,0.34906 1.41319,0.86334c0,0.53674 0.78671,1.23491 1.7966,1.42014c1.38922,0.53549 1.7944,1.23495 1.59306,3.35452c-0.40536,4.054 0.40294,5.28893 3.38712,4.58952c1.41293,-0.35034 2.19711,0 1.5925,0.6994c-0.17957,0.35034 0,1.23495 0.40356,1.60403c1.61676,1.05103 1.00983,3.51971 -0.78467,3.51971c-2.19958,0 -2.80444,0.88586 -1.61456,2.46991c0.80615,0.88461 1.41293,1.04852 2.19724,0.34909c1.81877,-1.76923 2.19986,-0.34909 2.40138,6.7103c0,3.53845 0.40311,6.35724 0.80597,6.35724c0.98842,0 0.60739,3.89005 -0.80597,5.47421c-0.78645,0.88449 -0.78645,1.74918 -0.20152,2.46967c1.41293,1.58405 0,6.17358 -1.7968,6.17358c-1.59259,0 -4.59854,3.35458 -4.59854,4.93878c0,1.93542 -2.57877,0 -3.18579,-2.11838c-0.60454,-1.93567 -0.60454,-1.93567 -1.00975,-0.53671c-0.38112,1.60657 1.79643,6.54492 3.61279,7.94394c1.18953,1.07104 -1.00998,2.84027 -2.60304,2.1196c-0.80838,-0.35031 -1.18958,-1.39905 -1.18958,-2.46869c0,-3.00433 -5.00183,-10.57776 -8.79451,-13.41815c-2.01782,-1.3988 -3.81181,-2.98431 -3.81181,-3.51837c0,-1.06976 -6.39571,-4.40439 -9.98409,-5.47412c-1.99846,-0.53537 -2.60287,-0.34915 -2.60287,1.06973c0,1.04852 -0.38129,1.39886 -1.19034,1.04852c-1.7941,-0.69806 -2.60234,0.88599 -1.00967,2.47104c2.20001,1.9346 1.81874,4.23914 -0.58269,3.35327c-1.61488,-0.53412 -1.8163,-0.34888 -1.21136,2.65515c0.2014,1.74915 0.60692,4.05396 0.60692,5.10236c0,1.07104 0.40273,1.77081 0.80602,1.77081c0.58499,0 0.78625,-0.35049 0.38113,-0.88495c-0.20145,-0.53552 0.20384,-1.04965 1.00967,-1.04965c0.60733,0 1.19034,0.70068 1.19034,1.40027c0,0.72055 -0.78685,1.41873 -2.20001,1.23492c-1.18715,0 -2.19759,-0.51437 -2.19759,-0.86456c0,-1.60684 -5.38503,-12.53357 -6.9782,-14.13751c-1.79402,-1.74921 -0.60443,-2.28354 -14.78401,6.00827c-2.19759,1.23486 -4.59897,3.88989 -5.81073,5.82422c-0.98784,1.93466 -2.58092,3.89029 -3.38715,4.23926c-0.80852,0.34924 -3.79224,3.16949 -6.39528,6.17368c-11.19594,13.23154 -9.37746,14.81552 -8.59293,41.83691c3.38936,20.47498 3.38936,20.47498 3.38936,20.47498c-7.98825,0 -7.98825,0 -7.98825,0c-6.59433,0 -6.59433,0 -6.59433,0c0.60452,-18.89215 0.60452,-18.89215 0.60452,-18.89215c0.40303,-1.58279 0.60687,-4.77344 0.80844,-6.54263c0.20184,-1.04977 -5.60892,-5.63934 -5.4066,-6.68784c0,-0.88586 6.01112,1.58405 6.01112,0.69943c0.98851,-12.88254 0,-23.13138 -2.60248,-28.58521c-0.60503,-3.35327 -5.60896,-14.13632 -6.39311,-14.13632c-0.20161,0 -1.61455,-1.0499 -3.00595,-2.28476c-2.40146,-2.30475 -3.3876,-2.46881 -16.78268,-3.16928c-14.38155,-0.71951 -14.38155,-0.71951 -14.38155,-0.71951c-3.4086,2.4686 -3.4086,2.4686 -3.4086,2.4686c-1.9964,1.60657 -3.99432,2.65509 -4.57758,2.65509c-1.21098,0 -6.2149,3.70483 -8.39105,5.82318c-0.2014,0 -0.4026,-0.18384 -0.4026,-0.34906c-0.20196,0 -0.20196,0 -0.20196,-0.18503c-0.20154,-0.51428 -0.40523,-1.05011 -0.80872,-1.58426c1.21188,-0.88446 2.20022,-1.42117 2.60282,-1.23508c0.60455,0.35062 1.18956,0 1.18956,-0.88556c0,-0.88354 -1.18956,-1.23502 -4.37475,-0.88354c-3.81438,0.53439 -4.8027,0.7182 -5.40724,2.81766c-0.9885,1.06998 -1.18972,2.65518 -0.60471,3.89023c-0.20386,1.58524 -0.20386,2.65521 0,2.65521c0.20121,0 0.40259,-0.35031 1.00804,-0.72202c0,0.1864 0.2012,0.37167 0.40504,0.53677c-1.9981,0.53427 -3.00842,2.11838 -2.80457,3.70361c-1.00979,0.71942 -1.99828,1.06979 -3.20979,1.60406c0,0 0,-0.18387 -0.1793,-0.18387c0.78625,-1.58411 1.18955,-3.35461 1.39081,-6.00858c0.40524,-2.98541 0.2014,-4.93994 -0.40314,-4.93994c-0.40267,0 -0.80837,0.72098 -0.80837,1.76935c0.20186,0.88586 -0.1793,1.7706 -0.98608,1.93439c-0.60687,0.18518 -1.00964,-0.16379 -1.00964,-1.04852c0,-2.12076 -0.78445,-2.12076 -2.58086,-0.18631c-0.80626,0.7207 -2.39911,1.58517 -3.7906,1.95554c-1.81833,0.5155 -2.40073,0.16516 -3.20911,-1.76923c-0.60525,-1.58405 -1.00804,-3.35446 -0.60525,-4.05402c0.20174,-0.88586 0.20174,-1.60513 -0.58271,-1.60513c-2.19987,0 -0.60683,-2.81912 1.99635,-3.35452l0.00004,0zm17.18559,-40.58197c-1.21171,-0.18393 -2.20021,-0.69818 -2.6034,-1.41888c-0.20135,-1.04979 -0.40258,-1.04979 -0.40258,0c0,0.7207 -0.80839,1.23495 -1.59305,1.41888c-1.41296,0 -1.41296,0.1864 0.20159,0.88586c0.98569,0.34906 1.99601,0.88458 2.19723,0.88458c0.17994,0 1.18987,-0.53552 2.20021,-0.88458c1.79427,-0.88586 1.79427,-0.88586 0,-0.88586zm158.43725,28.42004c0.3811,0.34909 0.78467,-0.18506 0.78467,-1.06979c0,-0.70056 -0.40356,-1.3999 -0.78467,-1.3999c-0.60687,0 -1.01007,0.34906 -1.01007,0.86432c0,0.53558 0.4032,1.25504 1.01007,1.60538zm-1.4129,1.5853c-0.20166,-0.53665 -1.19014,-1.23621 -1.99857,-1.23621c-0.58252,0 -0.9857,0.69955 -0.58252,1.23621c0.17966,0.53442 0.98796,0.88336 1.79439,0.88336c0.78668,0 0.9882,-0.34894 0.78668,-0.88336l0.00002,0zm-1.79472,7.94284c0.60458,0 1.41292,-0.18524 1.41292,-0.35043c0,-0.37036 -0.80832,-0.71936 -1.41292,-1.06985c-0.78636,-0.34909 -1.39087,-0.16522 -1.39087,0.35049c0,0.53531 0.60451,1.06979 1.39087,1.06979zm1.59306,-16.77124c0.80615,-0.35034 1.21155,-0.88586 1.00769,-1.40009c-0.60452,-1.255 -3.99164,-1.255 -3.99164,0c0,1.40009 1.18704,1.93436 2.98395,1.40009zm-10.9726,-13.23291c-1.00975,0.53552 -1.6143,1.58405 -1.41293,2.11954c1.01009,1.40015 2.19963,1.0498 3.20767,-1.23492c0.98785,-2.11957 0.5849,-2.46867 -1.79474,-0.88461zm-3.81436,27.18381c5.20605,4.75327 5.40739,4.93842 5.40739,3.35461c0,-0.8847 -0.40295,-1.60406 -1.00972,-1.60406c-0.58331,0 -1.59306,-0.88586 -2.19763,-1.9346c-0.58328,-1.05103 -1.79462,-2.1207 -2.78258,-2.1207c-1.81647,0 -1.81647,0.18518 0.58252,2.30475l0.00002,0zm-4.19298,-8.31317c1.20903,0 1.79399,-0.3501 1.00745,-0.51526c-0.60445,-0.34906 -1.59251,-0.34906 -2.19759,0c-0.60684,0.16516 0,0.51526 1.19014,0.51526zm-5.78857,-23.99442c0.60452,0.53424 2.39888,1.2337 3.99161,1.58527c2.80441,0.5343 3.006,0.5343 1.41327,-0.88585c-1.81645,-1.74922 -6.79601,-2.28473 -5.40488,-0.6994l0,-0.00002zm-12.1843,-29.28365c-0.60451,0.5155 -0.8058,1.5853 -0.60451,2.28348c0.40323,1.42139 1.59282,0.18518 1.59282,-1.93311c0,-1.07109 -0.20143,-1.23622 -0.98831,-0.35037zm5.99033,38.11229c1.59314,0.88461 2.19971,0.88461 3.0081,-0.35034c1.5928,-1.93567 0.58286,-2.819 -2.40143,-1.58533c-2.40143,0.86588 -2.40143,0.86588 -0.60667,1.93567zm-3.99158,-8.82864c3.00586,-1.93439 3.00586,-1.93439 0.60445,-1.93439c-1.61488,0 -2.80446,0.6994 -3.409,1.93439c-0.38116,1.2337 -0.78644,1.93439 -0.58502,1.93439c0,0 1.59259,-1.04979 3.38957,-1.93439zm-4.3976,28.60397c1.38921,1.93451 3.79068,1.93451 3.00603,-0.18387c-0.20157,-0.70059 -0.40541,-1.5853 -0.40541,-1.77167c0,-0.16403 -0.80627,-0.16403 -1.79401,0.18637c-1.61493,0.35028 -1.61493,0.8847 -0.80661,1.76917zm-6.19348,-7.24435c1.59259,1.93564 2.40103,2.11954 4.19562,0.70068c1.18954,-0.88461 1.18954,-0.88461 0,-1.04855c-0.60463,0 -2.1976,-0.1864 -3.58873,-0.53674c-1.99855,-0.69943 -1.99855,-0.69943 -0.60689,0.88461zm-0.20143,-19.24005c1.00987,0 2.19943,-2.82025 1.59227,-3.7049c-0.78397,-0.88458 -2.3989,0.53552 -2.3989,2.11957c0,0.88586 0.40305,1.58533 0.80663,1.58533zm-9.78107,11.99673c-1.21114,0.7207 -1.00949,0.88589 0.58348,0.88589c1.0096,0 2.19714,-0.35037 2.60243,-0.88589c0.60469,-1.39886 -1.39102,-1.39886 -3.18591,0zm0.20201,15.53619c0.17923,0.18643 0.78444,-0.18405 1.39107,-1.04852c0.60449,-0.72058 2.39943,-1.6051 3.79039,-1.95554c1.79442,-0.53433 2.60275,-1.39899 2.60275,-2.65402c0,-2.98267 -2.80418,-2.09927 -5.78865,1.77054c-1.21112,1.95456 -2.19757,3.53857 -1.99554,3.88754l-0.00002,0zm-2.19994,-8.12772c1.79408,-1.93314 1.79408,-2.28348 0.38115,-2.81897c-1.59227,-0.69946 -2.77988,0.88583 -2.77988,3.70358c-0.20384,2.12061 -0.20384,2.12061 2.39873,-0.88461zm-3.20721,-20.82539c0.2012,1.42018 0.60464,1.235 1.79419,-1.40009c1.41302,-2.81775 1.41302,-3.18939 0.2019,-3.18939c-0.78462,0 -1.59311,0.53424 -1.79489,1.42017c-0.40269,0.6994 -0.40269,2.30476 -0.2012,3.16931zm-0.98833,-14.4666c0,0.71947 0.38124,2.46869 0.78683,3.70363c0.60448,2.46988 0.60448,2.46988 1.21118,0.35031c0.7845,-2.11957 0,-5.28888 -1.21118,-5.28888c-0.58505,0 -0.78683,0.53427 -0.78683,1.23492l0,0.00002zm-13.99817,5.82318c-0.98775,1.23491 -0.98775,2.46991 -0.20384,6.17351c0.40564,2.65509 1.41556,5.31021 1.9987,5.82451c1.00998,0.88458 1.21118,0 1.41293,-5.47417c0,-6.68774 -1.01021,-8.80734 -3.20779,-6.52385zm1.79486,18.70706c0.20151,0.34909 0.60455,-0.35034 0.40273,-1.40012c0,-1.06979 -0.20122,-1.23495 -0.60449,-0.53427c-0.18016,0.69943 -0.18016,1.58405 0.20178,1.93439l-0.00002,0zm7.20155,-16.58621c-0.20172,0.34906 -0.20172,2.819 0.40268,5.47284c0.60733,4.58951 0.78685,4.77469 0.98834,1.42009c0.20116,-5.47406 -0.20149,-8.12793 -1.39102,-6.89293zm-6.79883,49.77979c1.21172,-2.12109 3.20781,-5.65948 4.59885,-7.78024c1.5932,-2.2836 2.60266,-5.28903 3.00613,-8.29297c0.58485,-4.7533 0.58485,-4.7533 0.58485,-4.7533c-2.40126,2.63486 -2.40126,2.63486 -2.40126,2.63486c-1.18973,1.42014 -1.99576,3.00418 -1.99576,3.53857c0,1.40012 -3.79283,10.22867 -4.98241,11.81271c-0.60464,0.88324 -1.61459,2.84036 -1.79417,4.23923c-1.00999,4.05264 0.78616,3.35431 2.98375,-1.39886l0.00002,0zm-14.17953,18.17001c0.60721,3.5184 0.60721,3.5184 2.60248,-4.05371c1.19028,-4.07532 2.98434,-10.59802 4.19623,-14.65198c1.59233,-5.12381 2.19948,-9.36279 2.19948,-15.35248c0,-7.77863 -0.20383,-7.94254 -1.79669,-7.0567c-3.61064,2.28351 -5.60858,8.64075 -6.41469,20.98773c-0.38116,6.36011 -0.7868,12.71881 -1.1903,14.11899c-0.20116,1.42014 0,4.07516 0.4035,6.00815l-0.00001,0zm0.40562,-45.17001c0.78393,1.74921 1.59232,3.16931 1.59232,3.16931c0.20178,0 1.18748,-1.07104 1.99638,-2.46991c1.00957,-1.2337 2.60248,-2.65381 3.20717,-3.16809c2.37903,-1.60657 2.9843,-6.54514 0.98834,-9.89966c-1.59303,-3.00299 -5.99011,-6.35876 -6.79852,-5.28894c-0.40294,0.35034 -0.98569,3.70485 -1.39133,7.59366c-0.80626,5.82446 -0.80626,7.59494 0.40562,10.06363l0.00001,0zm-1.21188,-40.41708c0.40276,0.35034 0.80626,0.16518 0.80626,-0.37036c0,-0.69942 -0.4035,-1.4001 -0.80626,-1.74794c-0.6068,-0.37163 -0.98796,-0.18645 -0.98796,0.513c0,0.53552 0.38116,1.23494 0.98796,1.6053zm-64.72688,47.4549c2.78259,0.18524 2.78259,0.18524 2.78259,0.18524c2.80478,0 5.60881,-2.28452 5.60881,-4.23892c0,-1.23492 -0.20142,-1.23492 -8.3914,4.05368zm1.18955,-4.93954c0,0.53677 0.40349,1.07104 1.01067,1.07104c0.9857,0 3.78976,-3.16931 3.18517,-3.70361c-0.60641,-0.7207 -4.19584,1.58405 -4.19584,2.63257zm2.20022,-12.1619c3.006,3.51971 4.39673,3.87006 5.98976,1.58533c1.61435,-2.11957 0.20142,-3.5397 -4.60056,-4.05396c-3.99261,-0.53552 -3.99261,-0.53552 -1.38921,2.46863zm-2.20022,-9.89716c0,0.37033 1.41328,1.23367 3.00597,1.95438c7.38162,3.35458 8.79456,3.35458 8.59337,0.16516c0,-1.93561 -3.00597,-6.17351 -4.19553,-6.17351c-1.41384,0 -7.40381,3.35329 -7.40381,4.05399l0,-0.00002zm10.79282,25.06448c2.19725,0 2.39956,-0.53552 0.60455,-1.39886c-0.80838,-0.18643 -1.59303,0 -1.79443,0.51425c-0.40504,0.53427 0.20139,0.88461 1.18988,0.88461zm1.5927,-41.46552c-1.39073,-0.88586 -3.18762,-1.23622 -3.99413,-0.88586c-1.39095,0.69943 -1.18954,0.88586 0.8065,1.42014c0.98849,0.35034 3.00784,0.69943 3.99448,0.86459c1.18954,0 1.18954,-0.35034 -0.80685,-1.39886zm-0.17977,6.35747c1.1878,0 1.39164,-0.18393 0.58313,-0.71947c-0.58313,-0.16516 -1.39153,-0.16516 -1.79409,0.18521c-0.20197,0.35033 0.40257,0.69942 1.21096,0.53426zm1.1878,4.05397c-2.80457,0 -2.80457,0.16513 -1.1878,1.58527c1.99619,1.58533 2.5788,1.76923 3.38718,0.6994c1.39159,-1.3988 0.40309,-2.28467 -2.19939,-2.28467l0.00001,0zm3.99435,-19.9395c-0.80837,-0.88589 -1.01031,0.6994 -0.60542,2.63252c0.20204,1.23495 1.00804,2.30475 1.4138,2.30475c0.78381,0 0.20116,-3.88878 -0.80837,-4.93729l-0.00001,0.00002zm6.3931,23.29399c-0.40335,0.16516 0.60652,1.23499 1.79607,2.12085c1.21191,0.88457 2.1976,1.23369 2.1976,0.69818c0,-1.2337 -3.38715,-3.53851 -3.99367,-2.81903zm-5.0024,1.23499c-1.79408,1.23492 -0.78423,4.4043 1.81645,4.93854c1.39102,0.35034 3.591,1.77054 4.98202,3.1694c1.21191,1.42014 2.1976,1.95566 2.1976,1.42014c0,-1.76923 -7.98621,-10.24878 -8.99607,-9.52808zm8.19004,14.65308c-1.1897,-2.84152 -2.58112,-4.24039 -5.18404,-5.125c-1.99614,-0.69943 -3.99409,-1.06979 -4.59863,-0.88461c-0.60645,0.18518 1.79411,2.46866 5.20582,5.12375c6.39315,4.58948 6.39315,4.58948 4.57685,0.88586zm10.61084,-27.18536c-0.40337,0 -0.80838,0.69946 -0.80838,1.39894c0,0.88585 0.40501,1.42014 0.80838,1.42014c0.58234,0 0.98769,-0.53427 0.98769,-1.42014c0,-0.69946 -0.40535,-1.39894 -0.98769,-1.39894zm-1.81644,14.46667c0,1.23492 3.40947,0.34906 4.8002,-1.23495c1.9964,-2.6539 1.79456,-3.35329 -0.8084,-3.35329c-1.7942,0 -3.99181,2.46991 -3.99181,4.58826l0.00001,-0.00002zm5.8101,-38.11223c-0.60654,2.28473 -1.0099,4.21786 -0.80841,4.4043c0.6069,0.69943 2.19992,-4.58948 2.19992,-6.70905c0,-0.88461 -0.60686,0.18643 -1.39151,2.30475zm10.38754,35.64232c-1.01001,0 -1.79457,0.35156 -1.79457,1.04974c0,0.53424 0.58267,0.88589 1.18726,0.88589c0.80919,0 1.59302,-0.35165 1.79686,-0.88589c0.40305,-0.69818 -0.20384,-1.04974 -1.18954,-1.04974l-0.00001,0zm-2.40143,33.17343c1.18953,3.18948 2.98447,6.17352 3.99402,6.89432c1.00989,0.53427 3.00595,3.00403 4.1955,5.47388c1.19002,2.46872 2.40141,4.40332 2.60297,4.40332c0.9865,0 -1.00992,-16.23599 -2.40065,-21.17569c-1.21188,-4.23779 -1.59305,-8.12784 -1.39188,-14.30136c0.17999,-4.58948 0,-8.64348 -0.40305,-8.99384c-0.20148,-0.34906 -1.59302,-0.34906 -2.80408,0c-2.20029,0.69946 -2.40143,1.23499 -2.40143,5.12506c0,2.98416 -0.40341,4.58948 -1.39143,5.28891c-2.80408,1.58405 -2.60294,10.57657 0,17.2854l0.00002,0zm-5.78856,-23.64536c-0.40266,-2.65387 -0.80605,-3.00299 -3.00597,-3.00299c-2.60292,0 -2.60292,0.18396 -2.4006,3.8876c0,2.28598 0.40488,4.93982 0.60606,6.17352c0.20232,1.23492 0.98849,2.46991 1.79454,2.65512c1.59306,0.88458 3.38713,-5.28894 3.00597,-9.71326zm-3.00597,17.82114c-1.79454,-2.11957 -3.00597,-4.40305 -3.18526,-4.93857c0,-0.6994 -1.01025,-2.46863 -2.19759,-4.05396c-1.21175,-1.58405 -2.60251,-3.53845 -3.20984,-4.23914c-1.99593,-2.46991 -1.59288,-0.34909 0.60733,5.12378c1.39076,3.7048 3.78984,7.05811 6.59431,9.87811c5.18388,4.77478 5.78854,3.88879 1.39104,-1.77023l0.00001,0zm-3.18526,8.66312c2.17537,0 1.99573,-0.18518 -1.01025,-3.00406c-1.99573,-1.76923 -3.38719,-3.70343 -3.38719,-4.58929c0,-0.69815 -2.60286,-3.18933 -5.60883,-5.47281c-2.9838,-2.30475 -5.7886,-4.58948 -6.19167,-5.28891c-0.40532,-0.88461 -0.60653,-0.88461 -0.60653,0.16391c0,1.07104 -0.98653,1.23495 -4.19547,0.69943c-2.19761,-0.34909 -3.99258,-0.34909 -3.99258,-0.16391c0,0.35034 0.80659,2.46991 1.61499,4.58948c1.391,3.51843 1.99641,4.24039 6.39312,5.63797c2.7826,0.88568 7.17962,3.00412 9.98412,4.58929c2.60286,1.60532 5.78854,2.8389 7.00031,2.8389l-0.00001,0zm-31.18602,5.98834c0.80839,0 1.99792,-0.34894 2.80444,-0.88449c1.39108,-1.23367 0.20384,-1.23367 -2.39954,0c-1.18954,0.53555 -1.39095,0.70068 -0.40489,0.88449l-0.00001,0zm-2.19763,-4.40298c1.99622,-0.71927 8.39111,-1.4202 14.20161,-1.4202c10.97028,-0.16516 13.17006,-0.69919 8.77267,-1.76923c-1.39117,-0.35022 -4.57713,-1.23483 -7.17961,-2.11929c-4.59903,-1.5842 -14.00054,-1.04993 -14.98629,0.7193c-0.20378,0.35165 -1.21184,0.53552 -2.19944,0.35165c-1.99606,-0.53671 -3.99433,0.88342 -4.59888,3.70343c-0.80838,2.2836 0.60455,2.46991 5.98993,0.53433l0.00001,0zm-15.97401,4.05405c0.40329,1.42004 2.40125,1.58521 3.99429,0.34894c0.98571,-0.69818 0.98571,-1.04852 0,-2.11816c-0.80839,-1.04993 -1.39146,-1.04993 -2.60333,-0.16516c-0.80837,0.51413 -1.39096,1.39883 -1.39096,1.93442l0,-0.00003zm-6.3931,12.34821c0.78447,0 1.18727,0.53439 0.78447,1.58408c-0.17992,0.72086 -0.78447,1.4191 -1.18954,1.4191c-0.60524,0 -0.98641,-0.69824 -0.98641,-1.4191c0,-0.86438 0.5831,-1.58408 1.39149,-1.58408l-0.00001,0z" id="svg_3" stroke="#000"/>
 </g>

</svg>